# xmcd
#
# Track frame offsets: 
#        150
#        5409
#        12170
#        22066
#        30433
#        37608
#        45396
#        49889
#        61846
#        70705
#        75316
#        83740
#        92150
#        98230
#        108441
#        117256
#        124470
#        132852
#        144765
#        152725
#        158601
#        170356
#        181592
#        189575
#        196218
#        202424
#        213041
#        224052
#        235589
#        247093
#
# Disc length: 3411 seconds
#
# Revision: 0
# Processed by: cddbd v1.5.2PL0 Copyright (c) Steve Scherf et al.
# Submitted via: ExactAudioCopy v0.95a4
#
DISCID=860d511e
DTITLE=Various Artist - Traditional Bluegrass 30 Power Picks
DYEAR=2016
DGENRE=Bluegrass
TTITLE0=Jim Greer - Black Jack Davey
TTITLE1=Roy Ross - When The Roses Bllom Again
TTITLE2=Log Cabin Boys - Salty Dog Blues
TTITLE3=Jim McCall and Earl Taylor - It Felt So Good
TTITLE4=DeWayne Wear - Old Joe Clark
TTITLE5=Red Smiley - Little Darling Pal Of Mine
TTITLE6=Hylo Brown - Black Eyed Susan
TTITLE7=Jack Casey - Ruby
TTITLE8=Jim McCall and Earl Taylor - Somebody To Love You
TTITLE9=Fiddlin' Mutt Poston - Cripple Creek
TTITLE10=Roy Ross - I'm Coming Back But You Don't Know When
TTITLE11=Jim Greer - Short Life Of Trouble
TTITLE12=Hylo Brown - Clouds Gonna Roll Away
TTITLE13=Log Cabin Boys - Uncle Pen
TTITLE14=Raymon Fairchild - The Sunnyside Rag
TTITLE15=Red Smiley - I'm Just Here To Get My Baby Out Of Jail
TTITLE16=Jim McCall and Earl Taylor - What's The Matter With The Mill
TTITLE17=Hylo Brown - All The Good Times Are Past And Gone
TTITLE18=Roy Ross - Harvest Time
TTITLE19=DeWayne Wear - Mississippi Sawyer
TTITLE20=Mac Martin - Swingin' A Nine Pound Hammer
TTITLE21=Jim McCall and Earl Taylor - Pretty Quardroon
TTITLE22=Log Cabin Boys - Sitting On Top Of The World
TTITLE23=Hylo Brown - Down In The Willow Garden
TTITLE24=Mac Martin - Fireball
TTITLE25=Red White - I Want To Be Loved, But Only By You
TTITLE26=Jim McCall and Earl Taylor - Little Henry Lee
TTITLE27=Red Smiley - Philadelphia Lawyer
TTITLE28=Log Cabin Boys - Gotta Travel On
TTITLE29=Mac Martin - Home In Tennessee
EXTD=
EXTT0=
EXTT1=
EXTT2=
EXTT3=
EXTT4=
EXTT5=
EXTT6=
EXTT7=
EXTT8=
EXTT9=
EXTT10=
EXTT11=
EXTT12=
EXTT13=
EXTT14=
EXTT15=
EXTT16=
EXTT17=
EXTT18=
EXTT19=
EXTT20=
EXTT21=
EXTT22=
EXTT23=
EXTT24=
EXTT25=
EXTT26=
EXTT27=
EXTT28=
EXTT29=
PLAYORDER=
